<?xml version="1.0" encoding="utf-8"?>
<!-- Generator: Adobe Illustrator 26.0.1, SVG Export Plug-In . SVG Version: 6.00 Build 0)  -->
<svg version="1.1" id="Layer_1" xmlns="http://www.w3.org/2000/svg" xmlns:xlink="http://www.w3.org/1999/xlink" x="0px" y="0px"
	 viewBox="0 0 1109.9 320" style="enable-background:new 0 0 1109.9 320;" xml:space="preserve">
<style type="text/css">
	.st0{fill:#0459A5;}
</style>
<rect x="326" y="237.1" class="st0" width="358.9" height="9.2"/>
<rect x="761.4" y="237.1" class="st0" width="348.5" height="9.2"/>
<g>
	<polygon class="st0" points="276.6,115.1 276.6,80 138.3,0 0,80 0,115.1 	"/>
	<polygon class="st0" points="0,204.9 0,240 138.3,320 276.6,240 276.6,204.9 	"/>
</g>
<g>
	<path d="M326,189.2h3.8v37.9H326V189.2z"/>
	<path d="M349,227.1v-37.9h0.8l25.2,29.1v-29.1h3.7v37.9h-0.8l-25-28.7v28.7H349z"/>
	<path d="M398.5,227.1v-37.9h7.8c5.7,0,9.8,0.5,12.3,1.4c3.7,1.3,6.5,3.5,8.6,6.7c2.1,3.2,3.1,7,3.1,11.4c0,3.8-0.8,7.1-2.5,10
		c-1.6,2.9-3.8,5-6.4,6.4s-6.3,2.1-11,2.1H398.5z M402.1,223.5h4.4c5.2,0,8.9-0.3,10.9-1c2.8-0.9,5.1-2.6,6.7-5s2.4-5.4,2.4-8.8
		c0-3.7-0.9-6.8-2.6-9.4c-1.8-2.6-4.2-4.4-7.4-5.3c-2.4-0.7-6.3-1.1-11.7-1.1h-2.7V223.5z"/>
	<path d="M448.4,189.2h3.8v22.9c0,2.7,0.1,4.4,0.2,5.1c0.2,1.5,0.6,2.7,1.3,3.7c0.7,1,1.7,1.8,3.2,2.5c1.4,0.7,2.9,1,4.3,1
		c1.3,0,2.5-0.3,3.6-0.8c1.1-0.5,2.1-1.3,2.9-2.2c0.8-0.9,1.3-2.1,1.7-3.4c0.3-1,0.4-2.9,0.4-5.9v-22.9h3.8v22.9
		c0,3.4-0.3,6.1-1,8.2c-0.7,2.1-2,3.9-4,5.5c-2,1.5-4.4,2.3-7.2,2.3c-3.1,0-5.7-0.7-7.8-2.2c-2.2-1.5-3.6-3.4-4.4-5.8
		c-0.5-1.5-0.7-4.1-0.7-8V189.2z"/>
	<path d="M489.3,220.1l3.2-1.9c2.3,4.2,4.9,6.3,7.8,6.3c1.3,0,2.5-0.3,3.6-0.9c1.1-0.6,2-1.4,2.5-2.4c0.6-1,0.9-2.1,0.9-3.2
		c0-1.3-0.4-2.5-1.3-3.7c-1.2-1.7-3.3-3.7-6.5-6.1c-3.2-2.4-5.1-4.1-5.9-5.2c-1.3-1.8-2-3.7-2-5.8c0-1.6,0.4-3.2,1.2-4.5
		c0.8-1.4,1.9-2.4,3.3-3.2c1.4-0.8,3-1.2,4.7-1.2c1.8,0,3.5,0.4,5,1.3c1.6,0.9,3.2,2.5,4.9,4.9l-3.1,2.3c-1.4-1.9-2.6-3.1-3.6-3.7
		s-2.1-0.9-3.3-0.9c-1.5,0-2.8,0.5-3.7,1.4c-1,0.9-1.5,2.1-1.5,3.4c0,0.8,0.2,1.6,0.5,2.4c0.3,0.8,1,1.6,1.9,2.5
		c0.5,0.5,2.1,1.7,4.9,3.8c3.3,2.4,5.5,4.6,6.7,6.5c1.2,1.9,1.8,3.8,1.8,5.7c0,2.7-1,5.1-3.1,7.2s-4.6,3-7.6,3
		c-2.3,0-4.4-0.6-6.2-1.8C492.6,225,490.9,222.9,489.3,220.1z"/>
	<path d="M526.3,192.9v-3.7H547v3.7h-8.4v34.2h-3.9v-34.2H526.3z"/>
	<path d="M563.2,189.2h7.5c4.2,0,7,0.2,8.5,0.5c2.2,0.5,4.1,1.6,5.5,3.3c1.4,1.7,2.1,3.8,2.1,6.3c0,2.1-0.5,3.9-1.5,5.4
		s-2.4,2.7-4.2,3.5c-1.8,0.8-4.3,1.2-7.5,1.2l13.6,17.6h-4.7l-13.6-17.6H567v17.6h-3.8V189.2z M567,192.9v12.9l6.5,0.1
		c2.5,0,4.4-0.2,5.6-0.7c1.2-0.5,2.2-1.2,2.8-2.3c0.7-1.1,1-2.2,1-3.5c0-1.3-0.3-2.4-1-3.5c-0.7-1-1.6-1.8-2.7-2.2
		c-1.1-0.4-3-0.7-5.6-0.7H567z"/>
	<path d="M604.9,189.2h3.8v37.9h-3.8V189.2z"/>
	<path d="M627.9,189.2h21.7v3.7h-17.9v11.9h17.7v3.7h-17.7v14.9h17.7v3.7h-21.5V189.2z"/>
	<path d="M662.8,220.1l3.2-1.9c2.3,4.2,4.9,6.3,7.8,6.3c1.3,0,2.5-0.3,3.6-0.9c1.1-0.6,2-1.4,2.5-2.4c0.6-1,0.9-2.1,0.9-3.2
		c0-1.3-0.4-2.5-1.3-3.7c-1.2-1.7-3.3-3.7-6.5-6.1c-3.2-2.4-5.1-4.1-5.9-5.2c-1.3-1.8-2-3.7-2-5.8c0-1.6,0.4-3.2,1.2-4.5
		c0.8-1.4,1.9-2.4,3.3-3.2c1.4-0.8,3-1.2,4.7-1.2c1.8,0,3.5,0.4,5,1.3c1.6,0.9,3.2,2.5,4.9,4.9l-3.1,2.3c-1.4-1.9-2.6-3.1-3.6-3.7
		s-2.1-0.9-3.3-0.9c-1.5,0-2.8,0.5-3.7,1.4c-1,0.9-1.5,2.1-1.5,3.4c0,0.8,0.2,1.6,0.5,2.4c0.3,0.8,1,1.6,1.9,2.5
		c0.5,0.5,2.1,1.7,4.9,3.8c3.3,2.4,5.5,4.6,6.7,6.5c1.2,1.9,1.8,3.8,1.8,5.7c0,2.7-1,5.1-3.1,7.2s-4.6,3-7.6,3
		c-2.3,0-4.4-0.6-6.2-1.8C666.1,225,664.4,222.9,662.8,220.1z"/>
</g>
<g>
	<path d="M761.4,221l3.2-1.9c2.3,4.2,4.9,6.3,7.8,6.3c1.3,0,2.5-0.3,3.6-0.9c1.1-0.6,2-1.4,2.5-2.4c0.6-1,0.9-2.1,0.9-3.2
		c0-1.3-0.4-2.5-1.3-3.7c-1.2-1.7-3.3-3.7-6.5-6.1c-3.2-2.4-5.1-4.1-5.9-5.2c-1.3-1.8-2-3.7-2-5.8c0-1.6,0.4-3.2,1.2-4.5
		c0.8-1.4,1.9-2.4,3.3-3.2c1.4-0.8,3-1.2,4.7-1.2c1.8,0,3.5,0.4,5,1.3c1.6,0.9,3.2,2.5,4.9,4.9l-3.1,2.3c-1.4-1.9-2.6-3.1-3.6-3.7
		s-2.1-0.9-3.3-0.9c-1.5,0-2.8,0.5-3.7,1.4c-1,0.9-1.5,2.1-1.5,3.4c0,0.8,0.2,1.6,0.5,2.4c0.3,0.8,1,1.6,1.9,2.5
		c0.5,0.5,2.1,1.7,4.9,3.8c3.3,2.4,5.5,4.6,6.7,6.5c1.2,1.9,1.8,3.8,1.8,5.7c0,2.7-1,5.1-3.1,7.2s-4.6,3-7.6,3
		c-2.3,0-4.4-0.6-6.2-1.8C764.7,225.9,763,223.9,761.4,221z"/>
	<path d="M801.6,190.2h3.8v37.9h-3.8V190.2z"/>
	<path d="M824.6,228.1v-37.9h0.8l25.2,29.1v-29.1h3.7v37.9h-0.8l-25-28.7v28.7H824.6z"/>
	<path d="M909.3,197.2l-3,2.3c-1.6-2.1-3.6-3.8-5.9-4.9c-2.3-1.1-4.8-1.7-7.6-1.7c-3,0-5.8,0.7-8.4,2.2c-2.6,1.5-4.6,3.4-6,5.9
		c-1.4,2.4-2.1,5.2-2.1,8.3c0,4.6,1.6,8.5,4.7,11.6s7.2,4.6,12,4.6c5.3,0,9.7-2.1,13.3-6.2l3,2.3c-1.9,2.4-4.2,4.3-7.1,5.6
		s-6,2-9.5,2c-6.6,0-11.8-2.2-15.7-6.6c-3.2-3.7-4.8-8.2-4.8-13.5c0-5.5,1.9-10.2,5.8-14c3.9-3.8,8.7-5.7,14.6-5.7
		c3.5,0,6.7,0.7,9.6,2.1C905.1,192.7,907.5,194.7,909.3,197.2z"/>
	<path d="M927.4,190.2h21.7v3.7h-17.9v11.9H949v3.7h-17.7v14.9H949v3.7h-21.5V190.2z"/>
	<path d="M971.3,190.2h7.4v37.9H975v-34.2h-5.9L971.3,190.2z"/>
	<path d="M1011.4,229l-3.1-2l10.2-15.5c-1.4,0.5-2.7,0.7-3.9,0.7c-3,0-5.6-1.1-7.7-3.3c-2.1-2.2-3.1-4.8-3.1-8
		c0-2.2,0.5-4.1,1.5-5.9c1-1.8,2.4-3.2,4.3-4.2c1.9-1,3.9-1.6,6-1.6c2.1,0,4,0.5,5.8,1.5s3.2,2.4,4.2,4.3c1,1.8,1.5,3.8,1.5,5.8
		c0,1.6-0.3,3.2-0.9,4.9s-1.7,3.8-3.4,6.2L1011.4,229z M1015.5,208.8c2.2,0,4.1-0.8,5.6-2.3c1.5-1.6,2.3-3.4,2.3-5.6
		c0-2.2-0.8-4.1-2.3-5.6c-1.6-1.6-3.4-2.3-5.6-2.3c-2.2,0-4.1,0.8-5.6,2.3c-1.6,1.6-2.3,3.4-2.3,5.6c0,2.2,0.8,4.1,2.3,5.6
		C1011.5,208.1,1013.3,208.8,1015.5,208.8z"/>
	<path d="M1051.1,229l-3.1-2l10.2-15.5c-1.4,0.5-2.7,0.7-3.9,0.7c-3,0-5.6-1.1-7.7-3.3c-2.1-2.2-3.1-4.8-3.1-8
		c0-2.2,0.5-4.1,1.5-5.9c1-1.8,2.4-3.2,4.3-4.2c1.9-1,3.9-1.6,6-1.6c2.1,0,4,0.5,5.8,1.5s3.2,2.4,4.2,4.3c1,1.8,1.5,3.8,1.5,5.8
		c0,1.6-0.3,3.2-0.9,4.9s-1.7,3.8-3.4,6.2L1051.1,229z M1055.3,208.8c2.2,0,4.1-0.8,5.6-2.3c1.5-1.6,2.3-3.4,2.3-5.6
		c0-2.2-0.8-4.1-2.3-5.6c-1.6-1.6-3.4-2.3-5.6-2.3c-2.2,0-4.1,0.8-5.6,2.3c-1.6,1.6-2.3,3.4-2.3,5.6c0,2.2,0.8,4.1,2.3,5.6
		C1051.2,208.1,1053.1,208.8,1055.3,208.8z"/>
	<path d="M1087.7,198.9h-3.9c0.7-3.1,2-5.5,4-7.2c2-1.7,4.3-2.5,7-2.5c2,0,3.8,0.5,5.5,1.4c1.7,0.9,3,2.1,4,3.6
		c0.9,1.5,1.4,3.1,1.4,4.8c0,3.3-1.6,5.9-4.9,7.8c1.8,0.7,3.3,1.8,4.5,3.2c1.6,2,2.5,4.3,2.5,6.8c0,2.1-0.6,4.2-1.7,6.1
		c-1.1,2-2.7,3.5-4.6,4.5c-2,1.1-4.1,1.6-6.6,1.6c-3.3,0-6-0.9-8.2-2.8c-2.2-1.9-3.6-4.6-4.3-8.3h3.7c0.7,2.5,1.6,4.2,2.8,5.3
		c1.6,1.4,3.5,2.1,6,2.1c2.7,0,4.9-0.8,6.6-2.5s2.5-3.6,2.5-5.8c0-1.5-0.4-2.9-1.2-4.1s-1.9-2.3-3.3-2.9c-1.4-0.7-3.6-1.1-6.5-1.2
		v-3.5c1.7,0,3.3-0.3,4.7-0.9c1.4-0.6,2.5-1.4,3.1-2.3c0.6-0.9,1-2,1-3.1c0-1.6-0.7-3.1-2-4.3s-3-1.8-5-1.8c-1.6,0-3,0.5-4.2,1.4
		C1089.5,195.2,1088.5,196.7,1087.7,198.9z"/>
</g>
<g>
	<path d="M345.4,44.3h20.3l25.4,76.4l25.6-76.4H437l18.4,109.5h-20.2l-11.8-69.2l-23.3,69.2h-18.4l-23.1-69.2l-12,69.2h-20.3
		L345.4,44.3z"/>
	<path d="M507.8,44.3h21.2l42.2,109.5h-21.7l-8.6-22.6h-44.7l-8.9,22.6h-21.7L507.8,44.3z M518.5,73.3l-14.7,37.6h29.3L518.5,73.3z"
		/>
	<path d="M589.6,44.3h21.1V82l29.8-37.8h25l-38.3,48.9l42,60.6h-24.7l-33.8-48.7v48.7h-21.1V44.3z"/>
	<path d="M686.5,44.3h59.8v20.4h-39.1v19.8h39.1v20h-39.1v28.8h39.1v20.5h-59.8V44.3z"/>
	<path d="M759.7,44.3h20.5l15.8,69.9l19.6-69.9H833l19.9,69.9l15.7-69.9h20.5l-24.7,109.5h-20L824.2,83l-19.8,70.8h-19.8L759.7,44.3
		z"/>
	<path d="M907.7,44.3h59.8v20.4h-39.1v19.8h39.1v20h-39.1v28.8h39.1v20.5h-59.8V44.3z"/>
	<path d="M989.3,44.3h20.9v89.6h30.4v19.9h-51.3V44.3z"/>
	<path d="M1058.7,44.3h20.9v89.6h30.4v19.9h-51.3V44.3z"/>
</g>
<g>
	<path d="M6.7,142h7.2l9,27l9-27h7.2l6.5,38.7h-7.1l-4.1-24.4l-8.2,24.4h-6.5l-8.1-24.4l-4.2,24.4H0L6.7,142z"/>
	<path d="M64,142h7.5l14.9,38.7h-7.7l-3-8H59.9l-3.1,8h-7.7L64,142z M67.8,152.2l-5.2,13.3H73L67.8,152.2z"/>
	<path d="M92.9,142h7.4v13.3l10.5-13.3h8.8l-13.5,17.3l14.8,21.4h-8.7l-11.9-17.2v17.2h-7.4V142z"/>
	<path d="M127.1,142h21.1v7.2h-13.8v7h13.8v7.1h-13.8v10.2h13.8v7.2h-21.1V142z"/>
	<path d="M153,142h7.2l5.6,24.7l6.9-24.7h6.1l7,24.7l5.5-24.7h7.2l-8.7,38.7h-7.1l-7.1-25l-7,25h-7L153,142z"/>
	<path d="M205.2,142h21.1v7.2h-13.8v7h13.8v7.1h-13.8v10.2h13.8v7.2h-21.1V142z"/>
	<path d="M234,142h7.4v31.6h10.7v7H234V142z"/>
	<path d="M258.5,142h7.4v31.6h10.7v7h-18.1V142z"/>
</g>
<ellipse class="st0" cx="723.9" cy="210.9" rx="8.2" ry="8.2"/>
</svg>
